<mxfile host="app.diagrams.net" modified="2021-05-15T20:20:22.492Z" agent="5.0 (X11; CrOS aarch64 13816.64.0) AppleWebKit/537.36 (KHTML, like Gecko) Chrome/90.0.4430.100 Safari/537.36" etag="qDujSP7OVu5GZPGEjPvd" version="14.6.13" type="github">
  <diagram id="b05gLVUrkn9c3rMck3ay" name="Page-1">
    <mxGraphModel dx="582" dy="383" grid="1" gridSize="10" guides="1" tooltips="1" connect="1" arrows="1" fold="1" page="1" pageScale="1" pageWidth="850" pageHeight="1100" math="0" shadow="0">
      <root>
        <mxCell id="0" />
        <mxCell id="1" parent="0" />
        <mxCell id="G0aI_Y24dpi2Sh__WAX7-8" style="edgeStyle=orthogonalEdgeStyle;rounded=0;orthogonalLoop=1;jettySize=auto;html=1;exitX=0.5;exitY=1;exitDx=0;exitDy=0;entryX=0.5;entryY=0;entryDx=0;entryDy=0;" edge="1" parent="1" source="G0aI_Y24dpi2Sh__WAX7-1" target="G0aI_Y24dpi2Sh__WAX7-3">
          <mxGeometry relative="1" as="geometry" />
        </mxCell>
        <mxCell id="G0aI_Y24dpi2Sh__WAX7-10" style="edgeStyle=orthogonalEdgeStyle;rounded=0;orthogonalLoop=1;jettySize=auto;html=1;exitX=0.5;exitY=1;exitDx=0;exitDy=0;entryX=0.5;entryY=0;entryDx=0;entryDy=0;" edge="1" parent="1" source="G0aI_Y24dpi2Sh__WAX7-1" target="G0aI_Y24dpi2Sh__WAX7-5">
          <mxGeometry relative="1" as="geometry" />
        </mxCell>
        <mxCell id="G0aI_Y24dpi2Sh__WAX7-11" style="edgeStyle=orthogonalEdgeStyle;rounded=0;orthogonalLoop=1;jettySize=auto;html=1;exitX=0.5;exitY=1;exitDx=0;exitDy=0;entryX=0.5;entryY=0;entryDx=0;entryDy=0;" edge="1" parent="1" source="G0aI_Y24dpi2Sh__WAX7-1" target="G0aI_Y24dpi2Sh__WAX7-4">
          <mxGeometry relative="1" as="geometry" />
        </mxCell>
        <mxCell id="G0aI_Y24dpi2Sh__WAX7-1" value="Which number is larger?" style="rounded=0;whiteSpace=wrap;html=1;" vertex="1" parent="1">
          <mxGeometry x="240" y="160" width="120" height="60" as="geometry" />
        </mxCell>
        <mxCell id="G0aI_Y24dpi2Sh__WAX7-2" value="Get number 1, number 2, number 3" style="rounded=0;whiteSpace=wrap;html=1;" vertex="1" parent="1">
          <mxGeometry x="80" y="360" width="120" height="60" as="geometry" />
        </mxCell>
        <mxCell id="G0aI_Y24dpi2Sh__WAX7-9" style="edgeStyle=orthogonalEdgeStyle;rounded=0;orthogonalLoop=1;jettySize=auto;html=1;exitX=0.5;exitY=1;exitDx=0;exitDy=0;" edge="1" parent="1" source="G0aI_Y24dpi2Sh__WAX7-3" target="G0aI_Y24dpi2Sh__WAX7-6">
          <mxGeometry relative="1" as="geometry" />
        </mxCell>
        <mxCell id="G0aI_Y24dpi2Sh__WAX7-3" value="Process" style="rounded=0;whiteSpace=wrap;html=1;" vertex="1" parent="1">
          <mxGeometry x="240" y="260" width="120" height="60" as="geometry" />
        </mxCell>
        <mxCell id="G0aI_Y24dpi2Sh__WAX7-13" style="edgeStyle=orthogonalEdgeStyle;rounded=0;orthogonalLoop=1;jettySize=auto;html=1;exitX=0.5;exitY=1;exitDx=0;exitDy=0;entryX=0.5;entryY=0;entryDx=0;entryDy=0;" edge="1" parent="1" source="G0aI_Y24dpi2Sh__WAX7-4" target="G0aI_Y24dpi2Sh__WAX7-7">
          <mxGeometry relative="1" as="geometry" />
        </mxCell>
        <mxCell id="G0aI_Y24dpi2Sh__WAX7-4" value="Output" style="rounded=0;whiteSpace=wrap;html=1;" vertex="1" parent="1">
          <mxGeometry x="400" y="260" width="120" height="60" as="geometry" />
        </mxCell>
        <mxCell id="G0aI_Y24dpi2Sh__WAX7-12" style="edgeStyle=orthogonalEdgeStyle;rounded=0;orthogonalLoop=1;jettySize=auto;html=1;exitX=0.5;exitY=1;exitDx=0;exitDy=0;entryX=0.5;entryY=0;entryDx=0;entryDy=0;" edge="1" parent="1" source="G0aI_Y24dpi2Sh__WAX7-5" target="G0aI_Y24dpi2Sh__WAX7-2">
          <mxGeometry relative="1" as="geometry" />
        </mxCell>
        <mxCell id="G0aI_Y24dpi2Sh__WAX7-5" value="Input" style="rounded=0;whiteSpace=wrap;html=1;" vertex="1" parent="1">
          <mxGeometry x="80" y="260" width="120" height="60" as="geometry" />
        </mxCell>
        <mxCell id="G0aI_Y24dpi2Sh__WAX7-6" value="Check which number is larger" style="rounded=0;whiteSpace=wrap;html=1;" vertex="1" parent="1">
          <mxGeometry x="240" y="360" width="120" height="60" as="geometry" />
        </mxCell>
        <mxCell id="G0aI_Y24dpi2Sh__WAX7-7" value="Show which number is larger." style="rounded=0;whiteSpace=wrap;html=1;" vertex="1" parent="1">
          <mxGeometry x="400" y="360" width="120" height="60" as="geometry" />
        </mxCell>
      </root>
    </mxGraphModel>
  </diagram>
</mxfile>
